<svg width="162" height="26" viewBox="0 0 162 26" fill="none" xmlns="http://www.w3.org/2000/svg">
<path d="M18.2888 9.64568L16.011 11.6019C14.6711 10.0744 12.9561 9.32412 10.8659 9.32412C8.99012 9.32412 7.40908 9.96725 6.14961 11.2535C4.89014 12.513 4.2738 14.094 4.2738 16.0234C4.2738 17.926 4.89014 19.5071 6.17641 20.7666C7.43588 22.026 9.01692 22.6424 10.9195 22.6424C13.0365 22.6424 14.7783 21.8652 16.0914 20.2842L18.3424 22.2404C16.5202 24.3842 13.8404 25.6705 10.9195 25.6705C8.1594 25.6705 5.77445 24.7594 3.84504 22.9371C1.94243 21.0881 0.950934 18.7836 0.950934 16.0234C0.950934 13.2633 1.91564 10.932 3.81824 9.08294C5.74765 7.23393 8.10581 6.29602 10.8659 6.29602C13.8672 6.29602 16.3326 7.39471 18.2888 9.64568Z" fill="#C2C9D8"/>
<path d="M19.8967 25.322L19.8699 6.5907H23.0856L23.1124 25.322H19.8967Z" fill="#C2C9D8"/>
<path d="M25.6312 11.7626H28.8737L28.9005 19.6678C28.9005 21.7044 30.0528 22.6959 31.875 22.6959C33.6704 22.6959 34.8227 21.6776 34.8227 19.6142L34.7959 11.7358H38.0384L38.0652 19.8286C38.0652 21.7044 37.4757 23.1515 36.2966 24.1698C35.1175 25.1613 33.6436 25.6436 31.8482 25.6436C30.0528 25.6436 28.579 25.1613 27.3999 24.1698C26.2476 23.1783 25.658 21.7848 25.6312 19.9358C25.658 19.9358 25.6312 11.7626 25.6312 11.7626Z" fill="#C2C9D8"/>
<path d="M50.6063 21.4365C51.3834 20.6594 51.7586 19.6679 51.7586 18.4888C51.7586 17.3097 51.3834 16.3182 50.6063 15.5411C49.8559 14.764 48.918 14.362 47.7658 14.362C46.6135 14.362 45.622 14.764 44.8181 15.5411C44.0409 16.3182 43.639 17.3097 43.639 18.4888C43.639 19.6679 44.0409 20.6594 44.8181 21.4365C45.622 22.2136 46.6135 22.6156 47.7658 22.6156C48.8912 22.6156 49.8291 22.2136 50.6063 21.4365ZM40.6377 25.2685L40.6109 6.53723H43.8266L43.8534 13.6921C44.3089 12.379 45.9435 11.4411 48.1677 11.4143C50.0703 11.4143 51.6782 12.0843 52.9912 13.4509C54.3043 14.7908 54.9474 16.4522 54.9742 18.462C54.9742 20.4718 54.3311 22.1333 53.018 23.5267C51.7318 24.8666 50.1239 25.5365 48.2213 25.5633C45.9971 25.5633 44.3625 24.6254 43.8801 23.3123V25.2685H40.6377Z" fill="#C2C9D8"/>
<path d="M56.9572 25.2417L56.9304 6.51044H60.1193L60.1461 13.5849C60.7625 12.2987 62.2363 11.4411 64.0853 11.4143C67.1938 11.4143 69.0428 13.4777 69.0428 16.8274L69.0696 25.2149H65.8807L65.8539 17.2829C65.8539 15.4339 64.8624 14.2817 63.1206 14.2817C61.3788 14.2817 60.1461 15.5679 60.1461 17.4437L60.1729 25.2417C60.1461 25.2417 56.9572 25.2417 56.9572 25.2417Z" fill="#C2C9D8"/>
<path d="M81.2625 21.4633C82.0664 20.6326 82.4684 19.6411 82.4684 18.4352C82.4684 17.2293 82.0664 16.2378 81.2625 15.4339C80.4586 14.6032 79.4671 14.2012 78.288 14.2012C77.0821 14.2012 76.0906 14.6032 75.2867 15.4339C74.5096 16.2378 74.1076 17.2293 74.1076 18.4352C74.1076 19.6411 74.5096 20.6326 75.2867 21.4633C76.0906 22.2672 77.0821 22.6692 78.288 22.6692C79.4671 22.6692 80.4586 22.2672 81.2625 21.4633ZM70.892 18.4352C70.892 16.4254 71.6155 14.7104 73.0357 13.3169C74.456 11.9503 76.1978 11.2535 78.2612 11.2267C80.3246 11.2267 82.0664 11.9235 83.5135 13.2901C84.9337 14.6568 85.6573 16.3718 85.6841 18.3816C85.7109 20.3914 84.9605 22.1064 83.5403 23.4999C82.12 24.8934 80.3782 25.5633 78.3148 25.5901C76.2514 25.5901 74.5096 24.8934 73.0625 23.5267C71.6155 22.1868 70.892 20.445 70.892 18.4352Z" fill="#C2C9D8"/>
<path d="M87.4793 11.6287H90.7218L90.7486 19.5339C90.7486 21.5705 91.9008 22.562 93.7231 22.562C95.5185 22.562 96.6708 21.5437 96.6708 19.4803L96.644 11.6019H99.8864L99.9132 19.6947C99.9132 21.5705 99.3237 23.0176 98.1446 24.0359C96.9655 25.0274 95.4917 25.5097 93.6963 25.5365C91.9009 25.5365 90.427 25.0542 89.2479 24.0627C88.0956 23.0712 87.5061 21.6777 87.4793 19.8287V11.6287Z" fill="#C2C9D8"/>
<path d="M103.183 21.0078C103.799 21.9725 105.112 22.696 106.747 22.696C108.435 22.696 109.158 22.0528 109.158 21.2221C109.158 20.7666 108.837 20.3914 108.381 20.1502C108.086 19.9627 107.524 19.7751 107.122 19.6411C106.72 19.5071 105.916 19.2659 105.46 19.0783C103.29 18.3012 102.137 17.2025 102.111 15.2731C102.111 14.0137 102.566 13.049 103.477 12.3254C104.415 11.6019 105.541 11.2267 106.881 11.2267C108.783 11.2267 110.23 11.8967 111.275 13.2097L109.48 15.1124C108.89 14.362 108.006 13.9869 106.854 13.9869C105.862 13.9869 105.219 14.4692 105.219 15.1927C105.219 15.6483 105.46 15.8895 105.836 16.1306C106.05 16.2646 106.586 16.479 106.934 16.613C107.336 16.7202 108.086 16.9882 108.622 17.1757C111.115 18.0601 112.267 19.2659 112.267 21.1953C112.267 23.6875 110.391 25.5097 106.72 25.5097C104.013 25.5097 101.977 24.4646 101.119 22.7764L103.183 21.0078Z" fill="#C2C9D8"/>
<path d="M123.763 16.8808C123.763 16.0769 123.415 15.3802 122.745 14.8174C122.075 14.2279 121.298 13.9331 120.36 13.9331C119.368 13.9331 118.484 14.2279 117.76 14.7906C117.037 15.3534 116.635 16.0501 116.554 16.8808H123.763ZM113.258 18.3546C113.258 16.2109 113.928 14.4958 115.241 13.156C116.581 11.8429 118.269 11.1998 120.333 11.173C122.289 11.173 123.897 11.8161 125.156 13.1292C126.416 14.4422 127.032 16.0501 127.059 17.9795C127.059 18.3814 127.032 18.7566 127.005 19.105L116.474 19.1318C116.581 21.2756 118.162 22.669 120.574 22.669C121.967 22.669 123.173 22.1599 124.218 21.1148L126.148 22.9906C124.62 24.5984 122.745 25.4291 120.467 25.4291C118.35 25.4291 116.608 24.786 115.268 23.5265C113.955 22.2671 113.285 20.5788 113.258 18.4618V18.3546Z" fill="#C2C9D8"/>
<path d="M131.963 20.7665C130.677 20.7665 129.632 21.8116 129.632 23.0978C129.632 24.3841 130.677 25.4292 131.963 25.4292C133.249 25.4292 134.294 24.3841 134.294 23.0978C134.294 21.8116 133.249 20.7665 131.963 20.7665Z" fill="#C2C9D8"/>
<path d="M143.781 12.2451L132.311 15.9163L132.285 7.10002L143.754 3.42879L143.781 12.2451ZM145.951 5.06342V0.42749L130.141 5.51898L130.168 18.9444L145.978 13.8529L145.951 5.06342Z" fill="#C2C9D8"/>
<path d="M157.661 12.4058L145.951 16.1574L145.924 7.34108L156.697 3.85743L154.231 9.08291L157.661 12.4058ZM160.609 0.346985L143.78 5.73324V19.1587L161.708 13.3973L156.831 8.65415L160.609 0.346985Z" fill="#C2C9D8"/>
</svg>