<svg width="141" height="41" viewBox="0 0 141 41" fill="none" xmlns="http://www.w3.org/2000/svg">
<path d="M7.87824 1.02362C5.01691 2.22385 1.87136 5.61466 0.877892 9.87086C-0.380258 15.2636 4.85549 17.5441 5.28493 16.7963C5.79037 15.9178 4.34675 15.6206 4.04959 12.8226C3.66553 9.20875 5.34208 5.17065 7.45209 3.39885C7.8443 3.06966 7.82564 3.52783 7.82564 4.3753C7.82564 5.89078 7.74208 19.4953 7.74208 22.3346C7.74208 26.1765 7.58373 27.3897 7.29933 28.5885C7.01117 29.8034 6.54792 30.6242 6.89895 30.9404C7.29114 31.2941 8.96567 30.4528 9.93508 29.097C11.0975 27.4709 11.5045 25.518 11.5775 23.3972C11.6658 20.8406 11.662 16.7839 11.6658 14.47C11.6693 12.3478 11.7014 6.1335 11.6286 2.3977C11.6108 1.48138 9.07486 0.52003 7.8781 1.02251L7.87824 1.02362ZM109.484 19.0034C109.392 21.0007 108.95 22.5619 108.403 23.6631C107.343 25.7949 105.143 26.4569 104.209 23.3923C103.7 21.7218 103.677 18.9319 104.042 16.6008C104.415 14.226 105.455 12.4325 107.177 12.5943C108.876 12.7542 109.671 14.9477 109.484 19.0034ZM80.8472 31.3953C80.8241 34.7139 80.3029 37.6237 79.1852 38.4688C77.6 39.6671 75.4693 38.7683 75.9105 36.3466C76.3008 34.2037 78.147 32.0152 80.8517 29.3412C80.8517 29.3412 80.8572 29.951 80.8472 31.3953ZM80.4142 18.9841C80.3173 20.8033 79.8467 22.6308 79.3332 23.6633C78.2734 25.7951 76.0578 26.4616 75.1396 23.3925C74.5118 21.2957 74.6622 18.5817 74.9728 16.8717C75.3758 14.653 76.3528 12.5947 78.1075 12.5947C79.8135 12.5947 80.6547 14.4702 80.4142 18.9841ZM63.8249 18.9563C63.7209 20.8829 63.3459 22.4935 62.7439 23.6633C61.6549 25.7805 59.5005 26.4519 58.5503 23.3925C57.8654 21.1865 58.0985 18.1785 58.3835 16.5536C58.8063 14.1423 59.8652 12.4328 61.5182 12.5947C63.2162 12.761 64.0417 14.9477 63.8249 18.9563ZM139.85 21.2067C139.435 21.2067 139.245 21.6355 139.089 22.3572C138.545 24.8666 137.974 25.4332 137.237 25.4332C136.414 25.4332 135.674 24.1906 135.484 21.7033C135.335 19.7474 135.359 16.1466 135.55 12.5648C135.589 11.8289 135.386 11.1007 133.417 10.3837C132.569 10.0752 131.337 9.62108 130.723 11.105C128.99 15.2973 128.312 18.6256 128.153 19.9777C128.144 20.0477 128.059 20.062 128.044 19.8985C127.942 18.8155 127.715 16.8477 127.686 12.7132C127.681 11.9065 127.51 11.2198 126.622 10.6577C126.045 10.2929 124.295 9.64774 123.664 10.4153C123.118 11.043 122.486 12.7322 121.828 14.7347C121.294 16.3622 120.922 17.4631 120.922 17.4631C120.922 17.4631 120.929 13.0718 120.936 11.4061C120.939 10.7777 120.508 10.5683 120.379 10.5303C119.795 10.3605 118.645 10.0769 118.157 10.0769C117.554 10.0769 117.407 10.4143 117.407 10.906C117.407 10.9703 117.312 16.6876 117.312 20.6853C117.312 20.859 117.312 21.0484 117.313 21.2497C116.98 23.0871 115.9 25.5814 114.724 25.5814C113.548 25.5814 112.993 24.5386 112.993 19.7726C112.993 16.9923 113.076 15.7834 113.117 13.7725C113.141 12.6142 113.187 11.7248 113.184 11.5229C113.176 10.9039 112.107 10.592 111.61 10.4767C111.111 10.3604 110.677 10.3154 110.338 10.3347C109.859 10.3618 109.52 10.6771 109.52 11.1107C109.52 11.3432 109.522 11.7854 109.522 11.7854C108.904 10.8127 107.911 10.1357 107.25 9.93951C105.47 9.40967 103.612 9.87914 102.211 11.8441C101.097 13.4053 100.426 15.1736 100.161 17.7141C99.9683 19.5714 100.031 21.4548 100.375 23.0477C99.9598 24.845 99.1897 25.5814 98.3463 25.5814C97.122 25.5814 96.2345 23.5788 96.3375 20.1155C96.4055 17.8375 96.8604 16.2389 97.3576 13.9262C97.5696 12.9403 97.3974 12.4241 96.9653 11.9294C96.5691 11.4758 95.7248 11.244 94.5111 11.529C93.6466 11.7323 92.4105 11.9509 91.2796 12.1188C91.2796 12.1188 91.3479 11.846 91.4039 11.3649C91.698 8.84233 88.9626 9.047 88.0898 9.85273C87.5689 10.3338 87.2143 10.9011 87.0797 11.9212C86.8662 13.54 88.1837 14.3035 88.1837 14.3035C87.7515 16.2863 86.6919 18.8766 85.5979 20.7493C85.012 21.7527 84.5638 22.4962 83.9852 23.2865C83.983 22.9922 83.9815 22.698 83.9804 22.4051C83.9672 18.2363 84.0225 14.9554 84.047 13.7728C84.0708 12.6146 84.1171 11.7487 84.1145 11.5469C84.108 11.0942 83.8441 10.9232 83.2954 10.7067C82.8102 10.5153 82.2365 10.3827 81.6415 10.3365C80.8904 10.2778 80.4379 10.677 80.4496 11.1491C80.4519 11.2382 80.4519 11.7855 80.4519 11.7855C79.8342 10.8128 78.8408 10.1359 78.1798 9.93967C76.3995 9.41006 74.5417 9.87955 73.1405 11.8442C72.027 13.4055 71.2978 15.5963 71.0912 17.6949C70.8988 19.6509 70.9343 21.3131 71.1967 22.7132C70.9136 24.1153 70.0997 25.5815 69.1794 25.5815C68.0028 25.5815 67.3334 24.5387 67.3334 19.7728C67.3334 16.9925 67.4167 15.7835 67.4576 13.7728C67.4814 12.6146 67.5273 11.7249 67.5247 11.5233C67.5161 10.9043 66.4479 10.5924 65.951 10.4768C65.4309 10.3563 64.982 10.312 64.6373 10.3375C64.1824 10.3714 63.8626 10.7796 63.8626 11.084V11.7855C63.245 10.8128 62.2515 10.1359 61.5905 9.93967C59.8102 9.41006 57.9628 9.8871 56.5512 11.8442C55.6307 13.1204 54.8855 14.5352 54.502 17.6671C54.3911 18.5722 54.3422 19.4197 54.3485 20.2119C53.9814 22.4615 52.3602 25.0543 51.034 25.0543C50.258 25.0543 49.5189 23.5459 49.5189 20.3312C49.5189 16.049 49.7834 9.95218 49.8281 9.36456C49.8281 9.36456 51.5037 9.33603 51.8282 9.33225C52.664 9.32305 53.421 9.34286 54.5342 9.2858C55.0926 9.25727 55.6305 7.24918 55.0542 7.00066C54.793 6.88818 52.9471 6.78962 52.2153 6.77405C51.5999 6.76008 49.8869 6.63304 49.8869 6.63304C49.8869 6.63304 50.0406 2.58622 50.0763 2.15872C50.1067 1.80243 49.6467 1.61898 49.3829 1.50767C48.7415 1.23579 48.1675 1.10562 47.4873 0.965089C46.5474 0.770799 46.1211 0.960844 46.0378 1.75573C45.9124 2.9621 45.8474 6.49557 45.8474 6.49557C45.1577 6.49557 42.8018 6.36046 42.1119 6.36046C41.471 6.36046 40.7792 9.12287 41.6653 9.15681C42.6849 9.19644 44.4617 9.23063 45.6396 9.26623C45.6396 9.26623 45.5872 15.4635 45.5872 17.3768C45.5872 17.5804 45.5889 17.7764 45.5893 17.9666C44.941 21.3527 42.6576 23.1818 42.6576 23.1818C43.148 20.9417 42.1463 19.2595 40.342 17.8355C39.6772 17.3108 38.3649 16.3174 36.8966 15.2287C36.8966 15.2287 37.747 14.3888 38.5012 12.6991C39.0356 11.5021 39.0586 10.1324 37.747 9.83032C35.5799 9.33089 33.793 10.9258 33.26 12.6286C32.847 13.9476 33.0673 14.9264 33.8763 15.9432C33.9353 16.0175 33.9993 16.0934 34.0654 16.1698C33.5762 17.1147 32.9042 18.3869 32.335 19.3734C30.7551 22.1125 29.5617 24.279 28.6598 24.279C27.9388 24.279 27.9484 22.0794 27.9484 20.02C27.9484 18.2446 28.0793 15.5754 28.1837 12.8118C28.2183 11.8978 27.7623 11.3772 26.9978 10.9056C26.5333 10.6191 25.542 10.0557 24.9678 10.0557C24.1084 10.0557 21.6291 10.1729 19.2864 16.9638C18.9911 17.8197 18.4111 19.3793 18.4111 19.3793L18.461 11.213C18.461 11.0216 18.3593 10.8365 18.1263 10.7098C17.7315 10.495 16.6771 10.0557 15.7396 10.0557C15.2929 10.0557 15.07 10.264 15.07 10.679L14.9882 23.4551C14.9882 24.4259 15.0134 25.5583 15.1092 26.0537C15.2046 26.5496 15.3592 26.953 15.5507 27.1931C15.7419 27.4326 15.963 27.6154 16.3277 27.6908C16.667 27.7608 18.5253 27.9999 18.6219 27.2883C18.7376 26.4355 18.742 25.513 19.7178 22.0726C21.2369 16.7164 23.2175 14.103 24.1486 13.1749C24.3114 13.0127 24.4973 13.003 24.4884 13.2685C24.4486 14.4428 24.3088 17.3771 24.2147 19.87C23.9625 26.5413 25.1736 27.7778 26.9043 27.7778C28.2283 27.7778 30.0948 26.4594 32.0956 23.1222C33.3429 21.0424 34.554 19.0032 35.4242 17.5335C36.0306 18.096 36.7111 18.7014 37.3911 19.3482C38.9714 20.8512 39.4903 22.2794 39.146 23.6343C38.8827 24.6701 37.8912 25.7376 36.1264 24.7001C35.612 24.3974 35.3924 24.1635 34.8752 23.8223C34.5973 23.6389 34.1731 23.5841 33.9187 23.7762C33.258 24.2754 32.8801 24.9104 32.6643 25.6966C32.4544 26.4616 33.2189 26.8659 34.0114 27.2196C34.6938 27.5241 36.1605 27.7999 37.0958 27.8313C40.7402 27.9535 43.6597 26.068 45.692 21.2044C46.0558 25.4047 47.6041 27.7816 50.2941 27.7816C52.0925 27.7816 53.8957 25.452 54.6842 23.1604C54.9106 24.0945 55.2456 24.9069 55.6784 25.5938C57.7512 28.8849 61.7723 28.1765 63.7922 25.3819C64.4167 24.5183 64.5117 24.208 64.5117 24.208C64.8063 26.8469 66.9269 27.7689 68.1411 27.7689C69.5009 27.7689 70.905 27.1247 71.889 24.9046C72.0043 25.1455 72.1302 25.3756 72.2676 25.5937C74.3404 28.8848 78.3616 28.1765 80.3814 25.3818C80.4767 25.2507 80.5593 25.1318 80.6316 25.0251L80.6909 26.7584C80.6909 26.7584 79.5386 27.8177 78.8312 28.4675C75.7181 31.3296 73.351 33.5011 73.1769 36.0298C72.9533 39.2542 75.5629 40.4525 77.5371 40.6096C79.6336 40.7763 81.429 39.6157 82.5326 37.9915C83.5032 36.5618 84.1386 33.4848 84.092 30.4458C84.0734 29.2289 84.0428 27.6815 84.0188 26.0229C85.113 24.7496 86.3457 23.1403 87.4808 21.2565C88.7178 19.2035 90.0435 16.4466 90.7224 14.301C90.7224 14.301 91.8742 14.3109 93.1035 14.2303C93.4967 14.2046 93.6096 14.285 93.5369 14.5739C93.4491 14.9228 91.9839 20.5863 93.3211 24.3591C94.2365 26.9418 96.2999 27.7728 97.5232 27.7728C98.9553 27.7728 100.325 26.689 101.059 25.0797C101.148 25.2591 101.24 25.4328 101.341 25.593C103.414 28.8841 107.421 28.1715 109.455 25.3811C109.914 24.7515 110.175 24.2073 110.175 24.2073C110.611 26.9383 112.731 27.782 113.944 27.782C115.209 27.782 116.409 27.2625 117.383 24.9538C117.423 25.9703 117.487 26.8015 117.589 27.0636C117.65 27.2238 118.01 27.425 118.271 27.5222C119.428 27.9521 120.608 27.7488 121.044 27.6603C121.346 27.599 121.582 27.3559 121.614 26.7282C121.699 25.08 121.647 22.3107 122.146 20.2526C122.983 16.7986 123.764 15.4588 124.134 14.7955C124.341 14.4239 124.575 14.3626 124.584 14.7559C124.601 15.5517 124.641 17.8887 124.965 21.0287C125.203 23.338 125.521 24.7029 125.766 25.1349C126.463 26.3703 127.325 26.4288 128.027 26.4288C128.473 26.4288 129.406 26.3051 129.323 25.519C129.282 25.1358 129.353 22.7677 130.179 19.3648C130.718 17.1427 131.616 15.1348 131.94 14.4008C132.059 14.13 132.115 14.3434 132.113 14.385C132.045 15.9154 131.892 20.921 132.514 23.6586C133.357 27.3673 135.797 27.7823 136.647 27.7823C138.462 27.7823 139.946 26.3988 140.446 22.7585C140.567 21.8825 140.388 21.2061 139.854 21.2061" fill="#C2C9D8"/>
</svg>