<svg width="160" height="48" viewBox="0 0 160 48" fill="none" xmlns="http://www.w3.org/2000/svg">
<path d="M24.5481 0.0805664C11.3817 0.0805664 0.707794 10.737 0.707794 23.8821C0.707794 37.0278 11.3817 47.6834 24.5481 47.6834C37.7159 47.6834 48.3887 37.0278 48.3887 23.8821C48.3887 10.7379 37.7159 0.0817033 24.5478 0.0817033L24.5481 0.0805664ZM35.4811 34.4092C35.0541 35.1084 34.1374 35.3301 33.4371 34.9009C27.8396 31.4874 20.7931 30.7143 12.4946 32.6072C11.6949 32.7891 10.8978 32.2889 10.7156 31.4902C10.5325 30.6916 11.0316 29.8957 11.8333 29.7138C20.9147 27.6424 28.7045 28.5343 34.9886 32.3685C35.6889 32.7977 35.911 33.71 35.4811 34.4092ZM38.3991 27.9283C37.8611 28.8015 36.7167 29.0772 35.8427 28.54C29.4344 24.6074 19.6661 23.4686 12.0863 25.7657C11.1033 26.0621 10.0651 25.509 9.76673 24.5293C9.47066 23.5479 10.0249 22.5133 11.0062 22.2148C19.6644 19.592 30.428 20.8625 37.7871 25.3774C38.661 25.9146 38.9372 27.0572 38.3991 27.9286V27.9283ZM38.6497 21.1797C30.966 16.6233 18.289 16.2043 10.953 18.4273C9.77499 18.784 8.52921 18.12 8.17222 16.9439C7.81522 15.7672 8.47967 14.5243 9.65855 14.1667C18.0798 11.6144 32.0791 12.1075 40.9254 17.3506C41.9873 17.9785 42.3346 19.3447 41.7055 20.4012C41.0792 21.4591 39.707 21.8078 38.6508 21.1797H38.6497ZM65.5694 22.0528C61.4529 21.0728 60.7212 20.385 60.7212 18.9397C60.7212 17.5743 62.008 16.6554 63.9239 16.6554C65.7801 16.6554 67.6191 17.3532 69.5493 18.7897C69.6062 18.8331 69.6802 18.8505 69.7514 18.8391C69.8254 18.8283 69.8881 18.7888 69.9308 18.7294L71.9406 15.9008C72.0232 15.7843 72.0004 15.6237 71.8894 15.5347C69.592 13.6949 67.0071 12.8005 63.9837 12.8005C59.5398 12.8005 56.4339 15.4634 56.4339 19.2734C56.4339 23.3591 59.1128 24.8058 63.7417 25.9226C67.6789 26.8284 68.3451 27.5873 68.3451 28.9436C68.3451 30.4471 67.0014 31.3822 64.8378 31.3822C62.435 31.3822 60.4736 30.5722 58.2815 28.6792C58.2274 28.6309 58.1534 28.611 58.0851 28.6139C58.011 28.6196 57.9456 28.6537 57.9 28.7077L55.6453 31.3851C55.5514 31.4988 55.5628 31.6636 55.6709 31.7602C58.2217 34.034 61.3589 35.2335 64.7467 35.2335C69.5351 35.2335 72.6296 32.6214 72.6296 28.5769C72.6381 25.1642 70.5912 23.2741 65.5779 22.0565L65.5694 22.0528ZM83.4647 17.9998C81.3893 17.9998 79.6869 18.8161 78.2806 20.4887V18.606C78.2806 18.4574 78.161 18.3363 78.013 18.3363H74.3263C74.1783 18.3363 74.0587 18.4574 74.0587 18.606V39.5253C74.0587 39.6731 74.1783 39.7953 74.3263 39.7953H78.013C78.161 39.7953 78.2806 39.6731 78.2806 39.5253V32.9227C79.6869 34.4945 81.3893 35.2647 83.4647 35.2647C87.3221 35.2647 91.228 32.3003 91.228 26.6331C91.2337 20.9648 87.3278 17.9995 83.4675 17.9995L83.4647 17.9998ZM86.9407 26.6331C86.9407 29.5177 85.1614 31.5329 82.6106 31.5329C80.0912 31.5329 78.1895 29.4268 78.1895 26.6331C78.1895 23.8392 80.0912 21.7337 82.6106 21.7337C85.1187 21.7334 86.9407 23.7934 86.9407 26.6328V26.6331ZM101.235 17.9998C96.2669 17.9998 92.3753 21.8186 92.3753 26.6948C92.3753 31.5187 96.2413 35.296 101.175 35.296C106.16 35.296 110.063 31.4902 110.063 26.6331C110.063 21.7925 106.185 18.0004 101.235 18.0004V17.9998ZM101.235 31.5613C98.5928 31.5613 96.6 29.441 96.6 26.6317C96.6 23.8096 98.5245 21.7618 101.175 21.7618C103.834 21.7618 105.838 23.8813 105.838 26.6934C105.838 29.5149 103.902 31.5613 101.235 31.5613ZM120.67 18.3363H116.613V14.1963C116.613 14.0479 116.494 13.9269 116.346 13.9269H112.659C112.511 13.9269 112.389 14.0479 112.389 14.1963V18.3363H110.618C110.47 18.3363 110.35 18.4574 110.35 18.606V21.7686C110.35 21.917 110.47 22.0383 110.618 22.0383H112.389V30.2226C112.389 33.5281 114.037 35.205 117.291 35.205C118.612 35.205 119.708 34.9322 120.741 34.3467C120.827 34.3012 120.878 34.2103 120.878 34.1136V31.1008C120.878 31.0099 120.829 30.9218 120.75 30.8735C120.67 30.8223 120.57 30.8195 120.488 30.8621C119.779 31.2174 119.093 31.3822 118.324 31.3822C117.143 31.3822 116.613 30.845 116.613 29.6456V22.0398H120.67C120.818 22.0398 120.938 21.9187 120.938 21.77V18.6077C120.943 18.4591 120.824 18.338 120.673 18.338L120.67 18.3363ZM134.802 18.3525V17.844C134.802 16.3482 135.377 15.6811 136.664 15.6811C137.432 15.6811 138.05 15.8334 138.742 16.0637C138.827 16.0904 138.915 16.077 138.984 16.0261C139.055 15.9753 139.095 15.8937 139.095 15.8073V12.7064C139.095 12.5879 139.021 12.483 138.904 12.448C138.175 12.2312 137.242 12.0086 135.841 12.0086C132.439 12.0086 130.637 13.9226 130.637 17.5416V18.3204H128.866C128.718 18.3204 128.596 18.4415 128.596 18.5898V21.7686C128.596 21.917 128.718 22.0383 128.866 22.0383H130.637V34.6593C130.637 34.81 130.759 34.9293 130.907 34.9293H134.591C134.742 34.9293 134.862 34.81 134.862 34.6593V22.0392H138.303L143.576 34.6593C142.978 35.9838 142.389 36.2481 141.586 36.2481C140.937 36.2481 140.251 36.0549 139.553 35.6712C139.488 35.6371 139.408 35.6314 139.34 35.6513C139.268 35.6769 139.209 35.728 139.18 35.7962L137.93 38.5333C137.871 38.6641 137.922 38.8147 138.047 38.8829C139.351 39.5878 140.527 39.8891 141.982 39.8891C144.703 39.8891 146.209 38.6214 147.533 35.2164L153.927 18.7209C153.961 18.6379 153.95 18.5441 153.898 18.4705C153.85 18.3974 153.767 18.3534 153.679 18.3534H149.842C149.725 18.3534 149.622 18.4264 149.585 18.5341L145.654 29.7422L141.35 18.5267C141.31 18.4224 141.21 18.3534 141.099 18.3534H134.802V18.3525ZM126.609 18.3363H122.922C122.774 18.3363 122.651 18.4574 122.651 18.606V34.6593C122.651 34.81 122.774 34.9293 122.922 34.9293H126.609C126.757 34.9293 126.879 34.81 126.879 34.6593V18.6072C126.879 18.4585 126.759 18.3375 126.609 18.3375V18.3363ZM124.787 11.0263C123.326 11.0263 122.142 12.2064 122.142 13.6642C122.142 15.1229 123.326 16.3044 124.787 16.3044C126.247 16.3044 127.428 15.1229 127.428 13.6642C127.428 12.2067 126.244 11.0263 124.787 11.0263ZM157.075 23.4981C155.618 23.4981 154.482 22.3285 154.482 20.9083C154.482 19.488 155.632 18.305 157.09 18.305C158.547 18.305 159.683 19.4743 159.683 20.8935C159.683 22.3138 158.533 23.4981 157.075 23.4981ZM157.09 18.5626C155.76 18.5626 154.755 19.617 154.755 20.9083C154.755 22.1989 155.755 23.2392 157.075 23.2392C158.405 23.2392 159.41 22.1856 159.41 20.8935C159.41 19.6028 158.411 18.5626 157.09 18.5626ZM157.665 21.1598L158.399 22.1853H157.779L157.118 21.2445H156.552V22.1853H156.034V19.467H157.246C157.881 19.467 158.297 19.7901 158.297 20.3341C158.3 20.7798 158.041 21.0521 157.668 21.1598H157.665ZM157.226 19.9334H156.552V20.7932H157.226C157.562 20.7932 157.764 20.6286 157.764 20.3628C157.764 20.0832 157.562 19.9334 157.226 19.9334Z" fill="#C2C9D8"/>
</svg>