<svg width="148" height="24" viewBox="0 0 148 24" fill="none" xmlns="http://www.w3.org/2000/svg">
<path d="M49.745 20.9951C47.7347 20.4536 45.89 18.9263 44.9462 17.0224C44.2229 15.5632 44.2238 15.5734 44.2221 8.86725C44.1364 3.06621 44.1691 2.87903 44.5558 2.31955C45.3772 0.949844 47.1884 0.657343 48.3759 1.70264C49.2097 2.43653 49.276 2.68575 49.276 5.08704V7.16948H52.7787C54.9213 7.16948 56.4855 7.21324 56.8068 7.28216C58.6348 7.67419 59.3287 9.86017 58.0596 11.2284C57.91 11.3897 57.6019 11.6218 57.3749 11.7443C56.9766 11.9592 56.8288 11.9681 53.1191 11.9985L49.276 12.0301V12.9588C49.276 14.3095 49.416 14.7514 50.043 15.3784C50.7751 16.1105 50.9706 16.145 54.4028 16.1477C57.0656 16.1497 57.3051 16.1651 57.736 16.3601C59.3708 17.1001 59.778 19.0704 58.5726 20.4074C57.868 21.189 57.8215 21.1968 53.9187 21.1924C50.8724 21.1889 50.3773 21.1655 49.745 20.9951ZM65.3432 21.0395C63.756 20.6549 62.1179 19.449 61.1167 17.928C60.194 16.5265 60.0142 15.5403 60.0094 11.8567C60.0053 8.68008 60.0691 8.28001 60.6802 7.65079C61.2459 7.06835 61.6063 6.91739 62.4384 6.91428C63.0739 6.91177 63.2343 6.9521 63.6738 7.22379C63.9865 7.41714 64.2977 7.72824 64.4911 8.04073C64.8781 8.71154 64.8071 8.9929 64.8549 11.7522C64.9054 14.8927 64.9115 14.967 65.1484 15.3481C65.9487 16.6352 67.6035 16.8249 68.7011 15.7553C69.3349 15.1378 69.3944 14.7749 69.3944 11.5314C69.3944 8.86443 69.4064 8.68489 69.6124 8.27447C70.0251 7.45223 70.6233 7.01701 71.5076 6.8958C72.4539 6.76609 73.4744 7.3239 73.9633 8.23808C74.1813 8.64552 74.1943 8.81275 74.2435 11.8201C74.2259 14.3219 74.3436 15.0541 74.5797 15.4044C75.3347 16.5444 76.9217 16.7896 77.9127 15.9194C78.623 15.2958 78.6226 15.2979 78.681 11.8122C78.7312 8.82022 78.745 8.64446 78.9612 8.23808C79.8688 6.53239 82.1663 6.42487 83.1651 8.04135C83.8113 8.93711 83.5284 10.8326 83.5284 12.055C83.5753 13.6635 83.481 15.726 83.1997 16.3617C82.4345 18.5214 80.7302 20.2368 78.6799 20.9109C77.7498 21.2167 75.7003 21.2901 74.7768 21.0507C73.8865 20.8199 73.1161 20.4663 72.3829 19.952L71.7674 19.5202L71.152 19.9519C70.4078 20.4739 69.6544 20.8275 68.8311 21.0412C68.0637 21.2404 66.1686 21.2395 65.3432 21.0395ZM86.7709 21.0545C86.3008 20.8498 85.7139 20.2972 85.4574 19.8178C85.2331 19.3988 85.2313 19.3525 85.2313 14.082C85.2313 9.01027 85.2405 8.7501 85.4337 8.36041C86.2372 6.74016 88.3117 6.37549 89.5696 7.63341C90.3519 8.41572 90.3497 8.39638 90.3162 14.2487C90.2872 19.2999 90.2826 19.403 90.0636 19.808C89.7755 20.341 89.2522 20.839 88.7682 21.0409C88.3002 21.2361 87.205 21.2435 86.7709 21.0545ZM97.5977 20.9964C95.3042 20.3952 93.3076 18.5833 92.4645 16.3383C92.0095 15.1268 91.9735 14.5096 92.0082 8.51073C92.0401 2.9776 92.0442 2.88128 92.2633 2.47518C93.3561 0.450035 96.3471 0.706397 96.9958 2.8808C97.1053 3.24765 97.1476 3.91417 97.1476 5.27003V7.15046L99.5979 7.18781C101.864 7.22233 102.079 7.24178 102.461 7.44581C104.254 8.40461 104.262 10.7835 102.476 11.7382C102.075 11.9523 101.894 11.9687 99.5895 12.0008L97.1307 12.0351L97.165 13.2391C97.2049 14.6441 97.365 15.0652 98.0621 15.5997C98.6726 16.0677 99.0569 16.1441 100.81 16.1459C102.217 16.1472 102.405 16.1695 102.879 16.3903C104.861 17.3131 104.859 20.107 102.876 21.0078C102.263 21.2862 98.6736 21.2785 97.5977 20.9964ZM110.733 21.0014C108.134 20.2907 106.001 18.1082 105.329 15.472C105.163 14.8239 105.145 14.1698 105.144 8.87186C105.183 3.37258 104.911 3.58762 105.426 2.45582C106.019 1.33118 107.242 0.835625 108.538 1.19541C109.078 1.34541 109.987 2.25432 110.137 2.79453C110.2 3.01939 110.249 4.07504 110.25 5.18348L110.25 7.16954H112.351C114.758 7.16954 115.397 7.25867 115.976 7.67522C117.232 8.57715 117.26 10.5982 116.03 11.4892C115.417 11.9337 114.836 12.0186 112.412 12.0186H110.25V12.9531C110.25 14.1838 110.392 14.7013 110.879 15.2546C111.543 16.0091 111.789 16.081 113.922 16.1429C115.778 16.1968 115.79 16.1987 116.294 16.5103C116.872 16.8671 117.407 17.6558 117.511 18.3048C117.661 19.2439 117.169 20.3015 116.32 20.8636L115.889 21.1493L113.663 21.1717C111.763 21.1907 111.334 21.1658 110.733 21.0014ZM123.611 21.048C122.103 20.6408 120.991 19.9714 119.904 18.815C118.582 17.4103 117.986 15.8621 117.99 13.8432C117.992 12.6099 118.204 11.6458 118.695 10.6258C119.214 9.54832 119.783 8.84571 120.621 8.24746C123.062 6.50553 127.401 6.39668 130.134 8.00881C131.113 8.58589 132.13 9.67801 132.626 10.6834C133.628 12.7163 133.527 14.5576 132.381 15.1562C131.984 15.3633 131.799 15.3728 127.609 15.4007L123.25 15.4297V15.7004C123.25 16.1224 123.922 16.6942 124.661 16.9017C125.165 17.0431 125.774 17.0741 128.054 17.0746C129.598 17.0746 130.999 17.1213 131.206 17.1788C132.982 17.6722 133.338 20.0244 131.776 20.9402C131.269 21.2824 130.964 21.1964 127.729 21.1941C125.047 21.1891 123.995 21.1517 123.611 21.048ZM128.147 11.8896C127.953 11.2387 127.396 10.8533 126.378 10.6651C125.294 10.4648 123.78 10.9129 123.488 11.52C123.359 11.7873 123.236 12.0916 123.236 12.0916C123.236 12.0916 124.138 12.1218 125.736 12.1218H128.216L128.147 11.8896ZM135.933 21.0023C135.401 20.7134 134.835 20.0424 134.7 19.5416C134.621 19.2487 134.596 18.1033 134.622 16.0021C134.659 12.9416 134.664 12.883 134.942 12.048C135.675 9.84877 137.634 8.02462 139.912 7.41998C140.75 7.19771 144.617 7.0912 145.46 7.26717C146.631 7.51153 147.392 8.41537 147.392 9.56201C147.392 10.5399 146.948 11.2967 146.115 11.7366C145.724 11.9437 145.498 11.9658 143.265 12.0158C140.95 12.0677 140.823 12.0811 140.452 12.3121C139.961 12.617 139.604 13.0872 139.459 13.6177C139.391 13.8667 139.346 15.097 139.345 16.7184C139.345 19.4058 139.345 19.4066 139.077 19.9447C138.896 20.3081 138.653 20.5908 138.329 20.8151C137.907 21.1068 137.755 21.1506 137.075 21.1749C136.467 21.1967 136.222 21.1597 135.933 21.0023ZM86.6442 5.3547C85.0064 4.53854 84.7087 2.38294 86.0689 1.18868C86.5987 0.723448 87.025 0.566528 87.759 0.566528C88.7853 0.566528 89.5826 1.04605 90.0435 1.94061C91.1457 4.07961 88.8044 6.43115 86.6442 5.3547Z" fill="#C2C9D8"/>
<path d="M9.51236 23.9777C20.4396 23.9777 26.3965 14.9531 26.3965 7.17453C26.3965 6.91021 26.3965 6.64589 26.3965 6.41933C27.5727 5.58861 28.5592 4.53133 29.356 3.36077C28.2936 3.81389 27.1554 4.15373 25.9412 4.30477C27.1554 3.58733 28.1039 2.41677 28.5592 1.01965C27.421 1.69933 26.1309 2.19021 24.803 2.45453C23.7027 1.28397 22.185 0.566528 20.4776 0.566528C17.1766 0.566528 14.5207 3.20973 14.5207 6.49485C14.5207 6.94797 14.5586 7.40109 14.6725 7.85421C9.74002 7.58989 5.37669 5.24877 2.41722 1.66157C1.92397 2.53005 1.62044 3.54957 1.62044 4.60685C1.62044 6.64589 2.68281 8.45837 4.27637 9.51565C3.28988 9.47789 2.37928 9.21357 1.58249 8.76045C1.58249 8.79821 1.58249 8.79821 1.58249 8.83597C1.58249 11.7057 3.63136 14.0846 6.36318 14.6133C5.86994 14.7643 5.33875 14.8398 4.80756 14.8398C4.42814 14.8398 4.04872 14.8021 3.70724 14.7265C4.46608 17.0677 6.66672 18.7669 9.24677 18.8424C7.1979 20.4283 4.65579 21.3723 1.88603 21.3723C1.39278 21.3723 0.937481 21.3345 0.482178 21.2968C3.06223 22.996 6.17347 23.9777 9.51236 23.9777Z" fill="#C2C9D8"/>
</svg>