<svg width="158" height="36" viewBox="0 0 158 36" fill="none" xmlns="http://www.w3.org/2000/svg">
<path fill-rule="evenodd" clip-rule="evenodd" d="M45.2466 1.61737C47.3949 2.19577 49.0888 3.88964 49.6672 6.03796C50.7413 9.96278 50.7 18.1429 50.7 18.1429C50.7 18.1429 50.7 26.2818 49.6672 30.2066C49.0888 32.3549 47.3949 34.0488 45.2466 34.6272C41.3218 35.66 25.6225 35.66 25.6225 35.66C25.6225 35.66 9.96452 35.66 5.99839 34.5859C3.85006 34.0075 2.15619 32.3136 1.5778 30.1653C0.544952 26.2818 0.544952 18.1016 0.544952 18.1016C0.544952 18.1016 0.544952 9.96278 1.5778 6.03796C2.15619 3.88964 3.89138 2.15446 5.99839 1.57606C9.92321 0.543213 25.6225 0.543213 25.6225 0.543213C25.6225 0.543213 41.3218 0.543213 45.2466 1.61737ZM33.6787 18.1016L20.6236 25.6208V10.5825L33.6787 18.1016Z" fill="#C2C9D8"/>
<path d="M73.3815 32.5202C72.39 31.8592 71.6876 30.8264 71.2745 29.3804C70.8613 27.9757 70.6548 26.0753 70.6548 23.7617V20.5805C70.6548 18.2256 70.9027 16.3252 71.3571 14.8792C71.8529 13.4332 72.5965 12.4004 73.5881 11.7393C74.6209 11.0783 75.943 10.7478 77.5955 10.7478C79.2067 10.7478 80.5288 11.0783 81.5203 11.7393C82.5119 12.4004 83.2142 13.4745 83.6687 14.8792C84.1231 16.2839 84.371 18.1843 84.371 20.5805V23.7617C84.371 26.1166 84.1644 27.9757 83.71 29.4217C83.2555 30.8264 82.5532 31.9005 81.5616 32.5615C80.5701 33.2226 79.2068 33.5531 77.5129 33.5531C75.7777 33.5118 74.373 33.1813 73.3815 32.5202ZM78.9589 29.0499C79.2481 28.3475 79.372 27.1494 79.372 25.5382V18.6801C79.372 17.1101 79.2481 15.9534 78.9589 15.2097C78.6697 14.4661 78.2152 14.1355 77.5129 14.1355C76.8519 14.1355 76.3561 14.5074 76.1082 15.2097C75.819 15.9534 75.6951 17.1101 75.6951 18.6801V25.5382C75.6951 27.1494 75.819 28.3475 76.1082 29.0499C76.3561 29.7522 76.8519 30.124 77.5542 30.124C78.2152 30.124 78.6697 29.7935 78.9589 29.0499Z" fill="#C2C9D8"/>
<path d="M149.647 23.803V24.9185C149.647 26.3231 149.688 27.3973 149.771 28.0996C149.853 28.802 150.019 29.339 150.308 29.6282C150.556 29.9588 150.969 30.124 151.547 30.124C152.291 30.124 152.787 29.8348 153.076 29.2564C153.365 28.678 153.489 27.7278 153.53 26.3644L157.786 26.6123C157.827 26.8189 157.827 27.0668 157.827 27.3973C157.827 29.4217 157.29 30.9503 156.174 31.9418C155.059 32.9334 153.489 33.4291 151.465 33.4291C149.027 33.4291 147.333 32.6442 146.342 31.1155C145.35 29.5869 144.854 27.232 144.854 24.0096V20.1674C144.854 16.8622 145.35 14.466 146.383 12.9374C147.416 11.4088 149.151 10.6652 151.589 10.6652C153.282 10.6652 154.604 10.9957 155.513 11.6154C156.422 12.2351 157.042 13.2266 157.414 14.5074C157.786 15.8294 157.951 17.6472 157.951 19.9608V23.7204H149.647V23.803ZM150.267 14.5487C150.019 14.8792 149.853 15.3749 149.771 16.0773C149.688 16.7796 149.647 17.8538 149.647 19.2998V20.8697H153.282V19.2998C153.282 17.8951 153.241 16.8209 153.158 16.0773C153.076 15.3336 152.869 14.8379 152.621 14.5487C152.374 14.2595 151.96 14.0942 151.465 14.0942C150.886 14.0529 150.514 14.2182 150.267 14.5487Z" fill="#C2C9D8"/>
<path d="M61.3179 23.3898L55.6992 3.02203H60.6155L62.5986 12.235C63.0943 14.5073 63.4662 16.4491 63.7141 18.0603H63.838C64.0033 16.9035 64.3751 15.0031 64.9535 12.2763L67.0192 3.02203H71.9355L66.2342 23.3898V33.1399H61.3592V23.3898H61.3179Z" fill="#C2C9D8"/>
<path d="M100.36 11.1609V33.1812H96.4762L96.063 30.4958H95.9391C94.9062 32.5202 93.295 33.553 91.188 33.553C89.742 33.553 88.6678 33.0573 87.9655 32.107C87.2632 31.1568 86.9326 29.6695 86.9326 27.6038V11.1609H91.8903V27.3146C91.8903 28.3062 92.0143 29.0085 92.2208 29.4216C92.4274 29.8348 92.7992 30.0413 93.295 30.0413C93.7081 30.0413 94.1213 29.9174 94.5344 29.6282C94.9475 29.3803 95.2367 29.0498 95.402 28.6367V11.1609H100.36Z" fill="#C2C9D8"/>
<path d="M125.767 11.1609V33.1812H121.884L121.471 30.4958H121.347C120.314 32.5202 118.703 33.553 116.596 33.553C115.15 33.553 114.076 33.0573 113.373 32.107C112.671 31.1568 112.34 29.6695 112.34 27.6038V11.1609H117.298V27.3146C117.298 28.3062 117.422 29.0085 117.629 29.4216C117.835 29.8348 118.207 30.0413 118.703 30.0413C119.116 30.0413 119.529 29.9174 119.942 29.6282C120.355 29.3803 120.644 29.0498 120.81 28.6367V11.1609H125.767Z" fill="#C2C9D8"/>
<path d="M113.828 7.02948H108.912V33.1399H104.078V7.02948H99.1615V3.02203H113.828V7.02948Z" fill="#C2C9D8"/>
<path d="M142.169 14.6726C141.88 13.2679 141.384 12.2764 140.723 11.6567C140.062 11.037 139.112 10.7065 137.955 10.7065C137.046 10.7065 136.179 10.9544 135.394 11.4914C134.609 11.9872 133.989 12.6895 133.576 13.5158H133.535V1.90662H128.742V33.1399H132.832L133.328 31.0742H133.452C133.824 31.8179 134.402 32.3963 135.187 32.8507C135.972 33.2639 136.798 33.5118 137.749 33.5118C139.442 33.5118 140.641 32.7268 141.426 31.1982C142.21 29.6696 142.624 27.232 142.624 23.9682V20.4979C142.582 17.9777 142.458 16.036 142.169 14.6726ZM137.625 23.6377C137.625 25.249 137.542 26.4884 137.418 27.3973C137.294 28.3062 137.046 28.9672 136.757 29.339C136.427 29.7109 136.013 29.9174 135.518 29.9174C135.105 29.9174 134.733 29.8348 134.402 29.6282C134.072 29.4217 133.782 29.1325 133.576 28.7607V16.2839C133.741 15.7055 134.03 15.2097 134.443 14.7966C134.857 14.4247 135.311 14.2182 135.766 14.2182C136.261 14.2182 136.674 14.4247 136.922 14.7966C137.212 15.2097 137.377 15.8707 137.501 16.7796C137.625 17.7298 137.666 19.0519 137.666 20.7458V23.6377H137.625Z" fill="#C2C9D8"/>
</svg>